# xmcd
# 
# Track frame offsets:
#	150
#	11207
#	22325
#	34462
#	46279
#	57413
#	68112
#	78493
#	93075
#	109849
#	121704
#	133496
#
# Disc length: 1972 seconds
#
# Revision: 1
# Processed by: cddbd v1.4PL0 Copyright (c) Steve Scherf et al.
# Submitted via: Audio-CD-Archiv 2.10.438
#
DISCID=aa07b20c
DTITLE=Frankie Laine - The Best Of Vol.2
DYEAR=1900
DGENRE=blues
TTITLE0=A Woman In Love
TTITLE1=Side By Side
TTITLE2=Love Is Where You Find It
TTITLE3=Someday
TTITLE4=Sixteen Tons
TTITLE5=Hey Joe
TTITLE6=I Believe
TTITLE7=The Girl In The Wood
TTITLE8=One For My Baby
TTITLE9=I'm Gonna Live Til I Die
TTITLE10=Marie
TTITLE11=Try A Little Tenderness
EXTD=
EXTT0=
EXTT1=
EXTT2=
EXTT3=
EXTT4=
EXTT5=
EXTT6=
EXTT7=
EXTT8=
EXTT9=
EXTT10=
EXTT11=
PLAYORDER=
